<?xml version="1.0" ?><svg viewBox="0 0 60 60" xmlns="http://www.w3.org/2000/svg"><defs><style>.a{fill:#e9eaf0;}.b{fill:#dfe0e6;}.c{fill:#c4cbd6;}.d{fill:#f1a101;}</style></defs><title/><path class="a" d="M60,30a29.77156,29.77156,0,0,1-1.38,9l-.34,1a29.76981,29.76981,0,0,1-7.9,12c-.37.35-.74.68-1.13,1a29.96875,29.96875,0,0,1-38.5,0c-.39-.32-.76-.65-1.13-1a29.76981,29.76981,0,0,1-7.9-12c-.12994-.33-.24-.66-.34-1A30.04569,30.04569,0,0,1,.15,27c.03-.34.06995-.67.12-1A29.51209,29.51209,0,0,1,4.03,15c.39-.69.81-1.35,1.25995-2H54.71c.45.65.87,1.31,1.25995,2a29.51209,29.51209,0,0,1,3.76,11l.12,1A29.67425,29.67425,0,0,1,60,30Z"/><path class="b" d="M55.97,15H4.03c.39-.69.81-1.35,1.25995-2H54.71C55.16,13.65,55.58,14.31,55.97,15Z"/><polygon class="c" points="0.27 26 59.73 26 59.85 27 0.15 27 0.27 26"/><polygon class="c" points="1.38 39 58.62 39 58.28 40 1.72 40 1.38 39"/><path class="c" d="M50.38,52c-.37.35-.74.68-1.13,1H10.75c-.39-.32-.76-.65-1.13-1Z"/><path class="d" d="M30,0A29.90919,29.90919,0,0,0,5.29,13H54.71A29.90919,29.90919,0,0,0,30,0Z"/></svg>